<svg width="21" height="20" viewBox="0 0 21 20" fill="none" xmlns="http://www.w3.org/2000/svg">
<path d="M2.16675 4.99992C2.16675 4.55789 2.34234 4.13397 2.6549 3.82141C2.96746 3.50885 3.39139 3.33325 3.83341 3.33325H17.1667C17.6088 3.33325 18.0327 3.50885 18.3453 3.82141C18.6578 4.13397 18.8334 4.55789 18.8334 4.99992V14.9999C18.8334 15.4419 18.6578 15.8659 18.3453 16.1784C18.0327 16.491 17.6088 16.6666 17.1667 16.6666H3.83341C3.39139 16.6666 2.96746 16.491 2.6549 16.1784C2.34234 15.8659 2.16675 15.4419 2.16675 14.9999V4.99992ZM5.09925 4.99992L10.5001 9.72575L15.9009 4.99992H5.09925ZM17.1667 6.10742L11.0492 11.4608C10.8973 11.5939 10.7021 11.6673 10.5001 11.6673C10.298 11.6673 10.1029 11.5939 9.95091 11.4608L3.83341 6.10742V14.9999H17.1667V6.10742Z" fill="#DADAE1"/>
</svg>
