<svg width="24" height="24" viewBox="0 0 24 24" fill="none" xmlns="http://www.w3.org/2000/svg">
<path d="M6.517 16.113C6.912 16.691 8.109 17.923 9.742 18.233M9.864 21C8.836 20.83 2 18.606 2 11.093C2 4.063 8.002 1 12 1C16 1 22 4.063 22 11.093C22 18.606 15.164 20.831 14.136 21C14.136 21 13.926 17.583 14.049 16.997C14.171 16.411 13.755 15.469 13.755 15.469C14.726 15.105 16.205 14.585 16.7 13.187C17.085 12.103 17.327 10.529 16.25 9.049C16.25 9.049 16.532 6.659 16 6.565C15.467 6.473 13.9 7.512 13.9 7.512C13.443 7.382 12.424 7.135 12.002 7.179C11.579 7.135 10.557 7.382 10.1 7.512C10.1 7.512 8.532 6.472 8 6.565C7.468 6.658 7.75 9.049 7.75 9.049C6.673 10.529 6.915 12.103 7.3 13.187C7.796 14.585 9.274 15.105 10.245 15.469C10.245 15.469 9.829 16.411 9.951 16.997C10.073 17.583 9.864 21 9.864 21Z" stroke="#DADAE1" stroke-width="1.5" stroke-linecap="round" stroke-linejoin="round"/>
</svg>
