<svg width="24" height="24" viewBox="0 0 24 24" fill="none" xmlns="http://www.w3.org/2000/svg">
<path fill-rule="evenodd" clip-rule="evenodd" d="M12 7.45459C10.7945 7.45459 9.63836 7.93348 8.78592 8.78592C7.93348 9.63836 7.45459 10.7945 7.45459 12C7.45459 13.2056 7.93348 14.3617 8.78592 15.2142C9.63836 16.0666 10.7945 16.5455 12 16.5455C13.2056 16.5455 14.3617 16.0666 15.2142 15.2142C16.0666 14.3617 16.5455 13.2056 16.5455 12C16.5455 10.7945 16.0666 9.63836 15.2142 8.78592C14.3617 7.93348 13.2056 7.45459 12 7.45459ZM9.27277 12C9.27277 12.7234 9.56011 13.4171 10.0716 13.9285C10.583 14.44 11.2767 14.7273 12 14.7273C12.7234 14.7273 13.4171 14.44 13.9285 13.9285C14.44 13.4171 14.7273 12.7234 14.7273 12C14.7273 11.2767 14.44 10.583 13.9285 10.0716C13.4171 9.56011 12.7234 9.27277 12 9.27277C11.2767 9.27277 10.583 9.56011 10.0716 10.0716C9.56011 10.583 9.27277 11.2767 9.27277 12Z" fill="#DADAE1"/>
<path d="M17.4545 5.63647C17.2134 5.63647 16.9822 5.73225 16.8117 5.90274C16.6412 6.07323 16.5454 6.30446 16.5454 6.54557C16.5454 6.78667 16.6412 7.0179 16.8117 7.18839C16.9822 7.35888 17.2134 7.45466 17.4545 7.45466C17.6956 7.45466 17.9268 7.35888 18.0973 7.18839C18.2678 7.0179 18.3636 6.78667 18.3636 6.54557C18.3636 6.30446 18.2678 6.07323 18.0973 5.90274C17.9268 5.73225 17.6956 5.63647 17.4545 5.63647Z" fill="#DADAE1"/>
<path fill-rule="evenodd" clip-rule="evenodd" d="M5.63636 2C4.67194 2 3.74702 2.38312 3.06507 3.06507C2.38312 3.74702 2 4.67194 2 5.63636V18.3636C2 19.3281 2.38312 20.253 3.06507 20.9349C3.74702 21.6169 4.67194 22 5.63636 22H18.3636C19.3281 22 20.253 21.6169 20.9349 20.9349C21.6169 20.253 22 19.3281 22 18.3636V5.63636C22 4.67194 21.6169 3.74702 20.9349 3.06507C20.253 2.38312 19.3281 2 18.3636 2H5.63636ZM18.3636 3.81818H5.63636C5.15415 3.81818 4.69169 4.00974 4.35071 4.35071C4.00974 4.69169 3.81818 5.15415 3.81818 5.63636V18.3636C3.81818 18.8458 4.00974 19.3083 4.35071 19.6493C4.69169 19.9903 5.15415 20.1818 5.63636 20.1818H18.3636C18.8458 20.1818 19.3083 19.9903 19.6493 19.6493C19.9903 19.3083 20.1818 18.8458 20.1818 18.3636V5.63636C20.1818 5.15415 19.9903 4.69169 19.6493 4.35071C19.3083 4.00974 18.8458 3.81818 18.3636 3.81818Z" fill="#DADAE1"/>
</svg>
