<svg width="24" height="24" viewBox="0 0 24 24" fill="none" xmlns="http://www.w3.org/2000/svg">
<path d="M4.27273 2C3.67143 2.00475 3.09611 2.24573 2.67092 2.67092C2.24573 3.09611 2.00475 3.67143 2 4.27273V19.7273C2 20.97 3.03 22 4.27273 22H19.7273C20.97 22 22 20.97 22 19.7273V4.27273C22 3.03 20.97 2 19.7273 2H4.27273ZM4.27273 3.81818H19.7273C19.9864 3.81818 20.1818 4.01364 20.1818 4.27273V19.7273C20.1831 19.7873 20.1721 19.847 20.1497 19.9027C20.1273 19.9584 20.0939 20.009 20.0514 20.0514C20.009 20.0939 19.9584 20.1273 19.9027 20.1497C19.847 20.1721 19.7873 20.1831 19.7273 20.1818H4.27273C4.2127 20.1831 4.15303 20.1721 4.09733 20.1497C4.04162 20.1273 3.99102 20.0939 3.94856 20.0514C3.9061 20.009 3.87266 19.9584 3.85026 19.9027C3.82785 19.847 3.81694 19.7873 3.81818 19.7273V4.27273C3.81818 4.01364 4.01364 3.81818 4.27273 3.81818ZM6.94364 5.38091C6.7353 5.37588 6.52807 5.41258 6.33413 5.48883C6.14019 5.56508 5.96346 5.67935 5.81434 5.82492C5.66522 5.97049 5.54672 6.14441 5.46581 6.33646C5.3849 6.5285 5.34322 6.73479 5.34322 6.94318C5.34322 7.15157 5.3849 7.35786 5.46581 7.54991C5.54672 7.74195 5.66522 7.91587 5.81434 8.06144C5.96346 8.20701 6.14019 8.32128 6.33413 8.39754C6.52807 8.47379 6.7353 8.51048 6.94364 8.50545C7.35145 8.49562 7.73925 8.3267 8.02421 8.03479C8.30916 7.74288 8.46868 7.35112 8.46868 6.94318C8.46868 6.53525 8.30916 6.14348 8.02421 5.85157C7.73925 5.55966 7.35145 5.39075 6.94364 5.38091ZM15.1527 9.52818C13.85 9.52818 12.9836 10.2418 12.6255 10.92H12.5682V9.72727H10.0109V18.3636H12.6818V14.1018C12.6818 12.9764 12.9055 11.8864 14.3009 11.8864C15.6755 11.8864 15.6936 13.1573 15.6936 14.1591V18.3636H18.3636V13.6191C18.3636 11.2973 17.8691 9.52818 15.1527 9.52818ZM5.63636 9.72727V18.3636H8.33545V9.72727H5.63636Z" fill="#DADAE1"/>
</svg>
