<svg width="20" height="20" viewBox="0 0 20 20" fill="none" xmlns="http://www.w3.org/2000/svg">
<path d="M7.5 1.66675H12.5C13.163 1.66675 13.7989 1.93014 14.2678 2.39898C14.7366 2.86782 15 3.50371 15 4.16675V15.8334C15 16.4965 14.7366 17.1323 14.2678 17.6012C13.7989 18.07 13.163 18.3334 12.5 18.3334H7.5C6.83696 18.3334 6.20107 18.07 5.73223 17.6012C5.26339 17.1323 5 16.4965 5 15.8334V4.16675C5 3.50371 5.26339 2.86782 5.73223 2.39898C6.20107 1.93014 6.83696 1.66675 7.5 1.66675ZM7.5 3.33341C7.27899 3.33341 7.06702 3.42121 6.91074 3.57749C6.75446 3.73377 6.66667 3.94573 6.66667 4.16675V15.8334C6.66667 16.0544 6.75446 16.2664 6.91074 16.4227C7.06702 16.579 7.27899 16.6667 7.5 16.6667H12.5C12.721 16.6667 12.933 16.579 13.0893 16.4227C13.2455 16.2664 13.3333 16.0544 13.3333 15.8334V4.16675C13.3333 3.94573 13.2455 3.73377 13.0893 3.57749C12.933 3.42121 12.721 3.33341 12.5 3.33341H7.5ZM10 15.8334C9.77899 15.8334 9.56702 15.7456 9.41074 15.5893C9.25446 15.4331 9.16667 15.2211 9.16667 15.0001C9.16667 14.7791 9.25446 14.5671 9.41074 14.4108C9.56702 14.2545 9.77899 14.1667 10 14.1667C10.221 14.1667 10.433 14.2545 10.5893 14.4108C10.7455 14.5671 10.8333 14.7791 10.8333 15.0001C10.8333 15.2211 10.7455 15.4331 10.5893 15.5893C10.433 15.7456 10.221 15.8334 10 15.8334Z" fill="#DADAE1"/>
</svg>
